<svg xmlns="http://www.w3.org/2000/svg" viewBox="0 0 256 256" aria-hidden="true">
  <path fill="#fff" d="M128 18C67.8 18 19 66.8 19 127c0 22.2 6.7 42.8 18.1 60L24 238l52.5-13.7A108.7 108.7 0 0 0 128 236c60.2 0 109-48.8 109-109S188.2 18 128 18Z"/>
  <path fill="#25d366" d="M128 35c-50.8 0-92 41.2-92 92 0 20 6.4 38.5 17.3 53.6l-8.9 32.9 33.8-8.9A91.6 91.6 0 0 0 128 219c50.8 0 92-41.2 92-92s-41.2-92-92-92Z"/>
  <path fill="#fff" d="M178.3 151.2c-2.8-1.4-16.3-8-18.8-8.9-2.5-.9-4.4-1.4-6.2 1.4-1.8 2.8-7.1 8.9-8.7 10.7-1.6 1.9-3.2 2.1-6 .7-2.8-1.4-11.7-4.3-22.2-13.7-8.2-7.3-13.8-16.4-15.4-19.2-1.6-2.8-.2-4.3 1.2-5.7 1.2-1.2 2.8-3.2 4.1-4.8 1.4-1.6 1.8-2.8 2.8-4.6.9-1.9.5-3.5-.2-4.8-.7-1.4-6.2-14.9-8.5-20.4-2.2-5.3-4.5-4.6-6.2-4.7h-5.3c-1.8 0-4.8.7-7.3 3.5-2.5 2.8-9.6 9.4-9.6 22.9 0 13.5 9.8 26.5 11.2 28.4 1.4 1.9 19.3 29.5 46.8 41.3 6.5 2.8 11.6 4.5 15.6 5.8 6.6 2.1 12.5 1.8 17.2 1.1 5.2-.8 16.3-6.7 18.6-13.1 2.3-6.5 2.3-12 1.6-13.1-.6-1.3-2.5-2-5.3-3.4Z"/>
</svg>
