<svg xmlns="http://www.w3.org/2000/svg" viewBox="0 0 24 24" aria-hidden="true">
  <path fill="none" stroke="#07885d" stroke-width="2.05" stroke-linecap="round" stroke-linejoin="round" d="M12 4.2a7.78 7.78 0 0 0-6.65 11.82L4.25 20l4.08-1.07A7.78 7.78 0 1 0 12 4.2Z"/>
  <path fill="none" stroke="#07885d" stroke-width="1.9" stroke-linecap="round" stroke-linejoin="round" d="M9.05 8.55c.18-.36.36-.37.62-.37h.46c.18 0 .37.08.47.36l.68 1.5c.1.27.07.45-.1.64l-.39.47c.68 1.14 1.54 1.98 2.72 2.58l.49-.56c.18-.2.39-.28.65-.17l1.5.62c.27.12.39.31.39.58v.46c0 .36-.2.63-.55.82-.58.31-1.42.36-2.63-.1-2.54-.96-4.47-2.93-5.42-5.43-.44-1.14-.3-2.05.01-2.6Z"/>
</svg>
