<svg xmlns="http://www.w3.org/2000/svg" viewBox="0 0 64 64" aria-hidden="true">
  <defs>
    <linearGradient id="wa-share-gradient" x1="11" y1="9" x2="53" y2="58" gradientUnits="userSpaceOnUse">
      <stop offset="0" stop-color="#59e66e"/>
      <stop offset="1" stop-color="#0aa548"/>
    </linearGradient>
  </defs>
  <rect x="8" y="8" width="48" height="48" rx="13" fill="url(#wa-share-gradient)"/>
  <path fill="#fff" d="M31.9 15.1c-9.4 0-17 7.5-17 16.8 0 3 .8 5.8 2.2 8.2l-2.4 8.8 9.1-2.3c2.4 1.3 5.1 2 8.1 2 9.4 0 17-7.5 17-16.8s-7.6-16.7-17-16.7Zm0 29.6c-2.5 0-4.9-.7-6.9-2l-.5-.3-5.4 1.4 1.5-5.2-.3-.5c-1.3-2-2-4.2-2-6.5 0-7.1 6.1-12.8 13.6-12.8s13.6 5.7 13.6 12.8-6.1 13.1-13.6 13.1Z"/>
  <path fill="#fff" d="M25.8 24.5c.4-.7.7-.8 1.2-.8h.9c.4 0 .8.2 1 .8l1.3 3c.2.5.1.9-.2 1.3l-.8 1c1.3 2.2 3.2 4 5.5 5.2l1-1.1c.4-.4.8-.6 1.3-.3l3 1.2c.6.2.8.7.8 1.2v.9c0 .7-.4 1.3-1.1 1.7-1.2.6-2.9.7-5.4-.2-5.2-1.9-9.1-5.9-11-11-.9-2.4-.6-4.2 0-5.4Z"/>
</svg>
